<svg xmlns="http://www.w3.org/2000/svg" xmlns:xlink="http://www.w3.org/1999/xlink" width="500" zoomAndPan="magnify" viewBox="0 0 375 374.999991" height="500" preserveAspectRatio="xMidYMid meet" version="1.0"><defs><g/><clipPath id="3405050047"><path d="M 158.4375 89.070312 L 185.128906 89.070312 L 185.128906 115.761719 L 158.4375 115.761719 Z M 158.4375 89.070312 " clip-rule="nonzero"/></clipPath><clipPath id="f82fc2c891"><path d="M 171.785156 89.070312 C 164.414062 89.070312 158.4375 95.042969 158.4375 102.414062 C 158.4375 109.785156 164.414062 115.761719 171.785156 115.761719 C 179.15625 115.761719 185.128906 109.785156 185.128906 102.414062 C 185.128906 95.042969 179.15625 89.070312 171.785156 89.070312 Z M 171.785156 89.070312 " clip-rule="nonzero"/></clipPath><clipPath id="291d9b20ba"><path d="M 195.273438 89.070312 L 221.964844 89.070312 L 221.964844 115.761719 L 195.273438 115.761719 Z M 195.273438 89.070312 " clip-rule="nonzero"/></clipPath><clipPath id="ef43ffe7e7"><path d="M 208.617188 89.070312 C 201.246094 89.070312 195.273438 95.042969 195.273438 102.414062 C 195.273438 109.785156 201.246094 115.761719 208.617188 115.761719 C 215.988281 115.761719 221.964844 109.785156 221.964844 102.414062 C 221.964844 95.042969 215.988281 89.070312 208.617188 89.070312 Z M 208.617188 89.070312 " clip-rule="nonzero"/></clipPath></defs><rect x="-37.5" width="450" fill="#ffffff" y="-37.499999" height="449.999989" fill-opacity="1"/><rect x="-37.5" width="450" fill="#ffffff" y="-37.499999" height="449.999989" fill-opacity="1"/><g fill="#000000" fill-opacity="1"><g transform="translate(153.04977, 212.497743)"><g><path d="M 30.328125 -5.625 C 30.328125 3.695312 27.054688 11.628906 20.515625 18.171875 C 13.984375 24.703125 6.054688 27.96875 -3.265625 27.96875 L -3.265625 26.921875 C -0.128906 26.921875 2.523438 25.832031 4.703125 23.65625 C 6.878906 21.476562 7.96875 18.820312 7.96875 15.6875 L 7.96875 -89.65625 L 30.328125 -89.65625 Z M 30.328125 -5.625 "/></g></g></g><g fill="#ff3131" fill-opacity="1"><g transform="translate(190.045861, 212.497743)"><g><path d="M 30.328125 -5.625 C 30.328125 3.695312 27.054688 11.628906 20.515625 18.171875 C 13.984375 24.703125 6.054688 27.96875 -3.265625 27.96875 L -3.265625 26.921875 C -0.128906 26.921875 2.523438 25.832031 4.703125 23.65625 C 6.878906 21.476562 7.96875 18.820312 7.96875 15.6875 L 7.96875 -89.65625 L 30.328125 -89.65625 Z M 30.328125 -5.625 "/></g></g></g><g clip-path="url(#3405050047)"><g clip-path="url(#f82fc2c891)"><path fill="#ff3131" d="M 158.4375 89.070312 L 185.128906 89.070312 L 185.128906 115.761719 L 158.4375 115.761719 Z M 158.4375 89.070312 " fill-opacity="1" fill-rule="nonzero"/></g></g><g fill="#000000" fill-opacity="1"><g transform="translate(109.077262, 268.056067)"><g><path d="M 2.328125 0.046875 C 1.867188 0.046875 1.4375 -0.0664062 1.03125 -0.296875 C 0.625 -0.535156 0.296875 -0.851562 0.046875 -1.25 L 0.234375 -1.40625 C 0.484375 -1.03125 0.789062 -0.734375 1.15625 -0.515625 C 1.519531 -0.304688 1.914062 -0.203125 2.34375 -0.203125 C 3.007812 -0.203125 3.503906 -0.394531 3.828125 -0.78125 C 4.148438 -1.175781 4.3125 -1.769531 4.3125 -2.5625 L 4.3125 -8.90625 L 0.890625 -8.90625 L 0.890625 -9.15625 L 4.578125 -9.15625 L 4.578125 -2.53125 C 4.578125 -0.8125 3.828125 0.046875 2.328125 0.046875 Z M 2.328125 0.046875 "/></g></g></g><g fill="#000000" fill-opacity="1"><g transform="translate(118.546936, 268.056067)"><g><path d="M 5.1875 0.046875 C 4.070312 0.046875 3.203125 -0.28125 2.578125 -0.9375 C 1.960938 -1.59375 1.65625 -2.554688 1.65625 -3.828125 L 1.65625 -9.15625 L 1.921875 -9.15625 L 1.921875 -3.84375 C 1.921875 -2.644531 2.203125 -1.738281 2.765625 -1.125 C 3.328125 -0.507812 4.132812 -0.203125 5.1875 -0.203125 C 6.25 -0.203125 7.0625 -0.507812 7.625 -1.125 C 8.1875 -1.738281 8.46875 -2.644531 8.46875 -3.84375 L 8.46875 -9.15625 L 8.71875 -9.15625 L 8.71875 -3.828125 C 8.71875 -2.554688 8.40625 -1.59375 7.78125 -0.9375 C 7.164062 -0.28125 6.300781 0.046875 5.1875 0.046875 Z M 5.1875 0.046875 "/></g></g></g><g fill="#000000" fill-opacity="1"><g transform="translate(132.162176, 268.056067)"><g><path d="M 8.9375 -9.15625 L 8.9375 0 L 8.703125 0 L 2 -8.671875 L 2 0 L 1.734375 0 L 1.734375 -9.15625 L 1.96875 -9.15625 L 8.671875 -0.484375 L 8.671875 -9.15625 Z M 8.9375 -9.15625 "/></g></g></g><g fill="#000000" fill-opacity="1"><g transform="translate(146.065123, 268.056067)"><g><path d="M 7.296875 -2.765625 L 1.703125 -2.765625 L 0.421875 0 L 0.125 0 L 4.375 -9.15625 L 4.625 -9.15625 L 8.875 0 L 8.578125 0 Z M 7.1875 -3.015625 L 4.5 -8.796875 L 1.8125 -3.015625 Z M 7.1875 -3.015625 "/></g></g></g><g fill="#000000" fill-opacity="1"><g transform="translate(158.29415, 268.056067)"><g><path d="M 1.734375 -9.15625 L 2 -9.15625 L 2 0 L 1.734375 0 Z M 1.734375 -9.15625 "/></g></g></g><g fill="#000000" fill-opacity="1"><g transform="translate(165.266032, 268.056067)"><g><path d="M 1.734375 -9.15625 L 5.203125 -9.15625 C 6.148438 -9.15625 6.988281 -8.957031 7.71875 -8.5625 C 8.445312 -8.175781 9.015625 -7.632812 9.421875 -6.9375 C 9.828125 -6.238281 10.03125 -5.453125 10.03125 -4.578125 C 10.03125 -3.703125 9.828125 -2.914062 9.421875 -2.21875 C 9.015625 -1.519531 8.445312 -0.972656 7.71875 -0.578125 C 6.988281 -0.191406 6.148438 0 5.203125 0 L 1.734375 0 Z M 5.171875 -0.25 C 6.085938 -0.25 6.890625 -0.429688 7.578125 -0.796875 C 8.273438 -1.171875 8.8125 -1.6875 9.1875 -2.34375 C 9.570312 -3 9.765625 -3.742188 9.765625 -4.578125 C 9.765625 -5.398438 9.570312 -6.140625 9.1875 -6.796875 C 8.8125 -7.460938 8.273438 -7.976562 7.578125 -8.34375 C 6.890625 -8.71875 6.085938 -8.90625 5.171875 -8.90625 L 2 -8.90625 L 2 -0.25 Z M 5.171875 -0.25 "/></g></g></g><g fill="#000000" fill-opacity="1"><g transform="translate(179.299758, 268.056067)"><g/></g></g><g fill="#000000" fill-opacity="1"><g transform="translate(185.800849, 268.056067)"><g><path d="M 8 0.125 L 6.59375 -1.40625 C 5.894531 -0.4375 4.890625 0.046875 3.578125 0.046875 C 3.023438 0.046875 2.53125 -0.046875 2.09375 -0.234375 C 1.664062 -0.421875 1.332031 -0.679688 1.09375 -1.015625 C 0.851562 -1.359375 0.734375 -1.753906 0.734375 -2.203125 C 0.734375 -2.710938 0.914062 -3.1875 1.28125 -3.625 C 1.644531 -4.070312 2.285156 -4.570312 3.203125 -5.125 L 3.09375 -5.234375 C 2.644531 -5.722656 2.34375 -6.117188 2.1875 -6.421875 C 2.03125 -6.734375 1.953125 -7.066406 1.953125 -7.421875 C 1.953125 -7.953125 2.128906 -8.378906 2.484375 -8.703125 C 2.835938 -9.023438 3.316406 -9.1875 3.921875 -9.1875 C 4.492188 -9.1875 4.941406 -9.039062 5.265625 -8.75 C 5.597656 -8.457031 5.765625 -8.0625 5.765625 -7.5625 C 5.765625 -7.257812 5.695312 -6.984375 5.5625 -6.734375 C 5.425781 -6.492188 5.203125 -6.238281 4.890625 -5.96875 C 4.585938 -5.707031 4.148438 -5.410156 3.578125 -5.078125 L 6.578125 -1.8125 C 6.898438 -2.320312 7.140625 -2.984375 7.296875 -3.796875 L 7.515625 -3.734375 C 7.347656 -2.890625 7.09375 -2.191406 6.75 -1.640625 L 8.203125 -0.046875 Z M 2.203125 -7.421875 C 2.203125 -7.097656 2.28125 -6.789062 2.4375 -6.5 C 2.59375 -6.21875 2.890625 -5.832031 3.328125 -5.34375 L 3.421875 -5.25 C 3.972656 -5.582031 4.394531 -5.863281 4.6875 -6.09375 C 4.976562 -6.332031 5.1875 -6.566406 5.3125 -6.796875 C 5.445312 -7.023438 5.515625 -7.28125 5.515625 -7.5625 C 5.515625 -7.988281 5.375 -8.328125 5.09375 -8.578125 C 4.820312 -8.828125 4.429688 -8.953125 3.921875 -8.953125 C 3.390625 -8.953125 2.96875 -8.8125 2.65625 -8.53125 C 2.351562 -8.257812 2.203125 -7.890625 2.203125 -7.421875 Z M 3.578125 -0.1875 C 4.816406 -0.1875 5.769531 -0.648438 6.4375 -1.578125 L 3.375 -4.9375 C 2.757812 -4.5625 2.28125 -4.226562 1.9375 -3.9375 C 1.59375 -3.644531 1.347656 -3.363281 1.203125 -3.09375 C 1.066406 -2.820312 1 -2.523438 1 -2.203125 C 1 -1.597656 1.234375 -1.109375 1.703125 -0.734375 C 2.179688 -0.367188 2.804688 -0.1875 3.578125 -0.1875 Z M 3.578125 -0.1875 "/></g></g></g><g fill="#000000" fill-opacity="1"><g transform="translate(197.323697, 268.056067)"><g/></g></g><g fill="#000000" fill-opacity="1"><g transform="translate(203.824788, 268.056067)"><g><path d="M 2.328125 0.046875 C 1.867188 0.046875 1.4375 -0.0664062 1.03125 -0.296875 C 0.625 -0.535156 0.296875 -0.851562 0.046875 -1.25 L 0.234375 -1.40625 C 0.484375 -1.03125 0.789062 -0.734375 1.15625 -0.515625 C 1.519531 -0.304688 1.914062 -0.203125 2.34375 -0.203125 C 3.007812 -0.203125 3.503906 -0.394531 3.828125 -0.78125 C 4.148438 -1.175781 4.3125 -1.769531 4.3125 -2.5625 L 4.3125 -8.90625 L 0.890625 -8.90625 L 0.890625 -9.15625 L 4.578125 -9.15625 L 4.578125 -2.53125 C 4.578125 -0.8125 3.828125 0.046875 2.328125 0.046875 Z M 2.328125 0.046875 "/></g></g></g><g fill="#000000" fill-opacity="1"><g transform="translate(213.294462, 268.056067)"><g><path d="M 7.296875 -2.765625 L 1.703125 -2.765625 L 0.421875 0 L 0.125 0 L 4.375 -9.15625 L 4.625 -9.15625 L 8.875 0 L 8.578125 0 Z M 7.1875 -3.015625 L 4.5 -8.796875 L 1.8125 -3.015625 Z M 7.1875 -3.015625 "/></g></g></g><g fill="#000000" fill-opacity="1"><g transform="translate(225.52349, 268.056067)"><g><path d="M 13.53125 -9.15625 L 10.390625 0 L 10.140625 0 L 7.0625 -8.78125 L 3.984375 0 L 3.734375 0 L 0.59375 -9.15625 L 0.875 -9.15625 L 3.875 -0.421875 L 6.9375 -9.15625 L 7.1875 -9.15625 L 10.265625 -0.390625 L 13.265625 -9.15625 Z M 13.53125 -9.15625 "/></g></g></g><g fill="#000000" fill-opacity="1"><g transform="translate(242.878895, 268.056067)"><g><path d="M 7.296875 -2.765625 L 1.703125 -2.765625 L 0.421875 0 L 0.125 0 L 4.375 -9.15625 L 4.625 -9.15625 L 8.875 0 L 8.578125 0 Z M 7.1875 -3.015625 L 4.5 -8.796875 L 1.8125 -3.015625 Z M 7.1875 -3.015625 "/></g></g></g><g fill="#000000" fill-opacity="1"><g transform="translate(255.107922, 268.056067)"><g><path d="M 1.734375 -9.15625 L 5.203125 -9.15625 C 6.148438 -9.15625 6.988281 -8.957031 7.71875 -8.5625 C 8.445312 -8.175781 9.015625 -7.632812 9.421875 -6.9375 C 9.828125 -6.238281 10.03125 -5.453125 10.03125 -4.578125 C 10.03125 -3.703125 9.828125 -2.914062 9.421875 -2.21875 C 9.015625 -1.519531 8.445312 -0.972656 7.71875 -0.578125 C 6.988281 -0.191406 6.148438 0 5.203125 0 L 1.734375 0 Z M 5.171875 -0.25 C 6.085938 -0.25 6.890625 -0.429688 7.578125 -0.796875 C 8.273438 -1.171875 8.8125 -1.6875 9.1875 -2.34375 C 9.570312 -3 9.765625 -3.742188 9.765625 -4.578125 C 9.765625 -5.398438 9.570312 -6.140625 9.1875 -6.796875 C 8.8125 -7.460938 8.273438 -7.976562 7.578125 -8.34375 C 6.890625 -8.71875 6.085938 -8.90625 5.171875 -8.90625 L 2 -8.90625 L 2 -0.25 Z M 5.171875 -0.25 "/></g></g></g><g fill="#000000" fill-opacity="1"><g transform="translate(148.442037, 283.52875)"><g><path d="M 3.171875 0.046875 C 2.648438 0.046875 2.175781 -0.0664062 1.75 -0.296875 C 1.320312 -0.535156 0.988281 -0.859375 0.75 -1.265625 C 0.507812 -1.679688 0.390625 -2.144531 0.390625 -2.65625 C 0.390625 -3.164062 0.507812 -3.625 0.75 -4.03125 C 0.988281 -4.445312 1.320312 -4.769531 1.75 -5 C 2.175781 -5.238281 2.65625 -5.359375 3.1875 -5.359375 C 3.582031 -5.359375 3.945312 -5.289062 4.28125 -5.15625 C 4.613281 -5.03125 4.894531 -4.84375 5.125 -4.59375 L 4.765625 -4.234375 C 4.347656 -4.648438 3.828125 -4.859375 3.203125 -4.859375 C 2.773438 -4.859375 2.390625 -4.757812 2.046875 -4.5625 C 1.703125 -4.375 1.429688 -4.113281 1.234375 -3.78125 C 1.046875 -3.445312 0.953125 -3.070312 0.953125 -2.65625 C 0.953125 -2.238281 1.046875 -1.863281 1.234375 -1.53125 C 1.429688 -1.195312 1.703125 -0.929688 2.046875 -0.734375 C 2.390625 -0.546875 2.773438 -0.453125 3.203125 -0.453125 C 3.835938 -0.453125 4.359375 -0.664062 4.765625 -1.09375 L 5.125 -0.734375 C 4.894531 -0.484375 4.609375 -0.289062 4.265625 -0.15625 C 3.929688 -0.0195312 3.566406 0.046875 3.171875 0.046875 Z M 3.171875 0.046875 "/></g></g></g><g fill="#000000" fill-opacity="1"><g transform="translate(155.770694, 283.52875)"><g><path d="M 3.1875 0.046875 C 2.664062 0.046875 2.1875 -0.0664062 1.75 -0.296875 C 1.320312 -0.535156 0.988281 -0.859375 0.75 -1.265625 C 0.507812 -1.679688 0.390625 -2.144531 0.390625 -2.65625 C 0.390625 -3.164062 0.507812 -3.625 0.75 -4.03125 C 0.988281 -4.445312 1.320312 -4.769531 1.75 -5 C 2.1875 -5.238281 2.664062 -5.359375 3.1875 -5.359375 C 3.71875 -5.359375 4.191406 -5.238281 4.609375 -5 C 5.035156 -4.769531 5.367188 -4.445312 5.609375 -4.03125 C 5.847656 -3.625 5.96875 -3.164062 5.96875 -2.65625 C 5.96875 -2.144531 5.847656 -1.679688 5.609375 -1.265625 C 5.367188 -0.859375 5.035156 -0.535156 4.609375 -0.296875 C 4.191406 -0.0664062 3.71875 0.046875 3.1875 0.046875 Z M 3.1875 -0.453125 C 3.601562 -0.453125 3.984375 -0.546875 4.328125 -0.734375 C 4.671875 -0.929688 4.9375 -1.195312 5.125 -1.53125 C 5.320312 -1.863281 5.421875 -2.238281 5.421875 -2.65625 C 5.421875 -3.070312 5.320312 -3.445312 5.125 -3.78125 C 4.9375 -4.125 4.671875 -4.390625 4.328125 -4.578125 C 3.984375 -4.765625 3.601562 -4.859375 3.1875 -4.859375 C 2.769531 -4.859375 2.390625 -4.765625 2.046875 -4.578125 C 1.703125 -4.390625 1.429688 -4.125 1.234375 -3.78125 C 1.046875 -3.445312 0.953125 -3.070312 0.953125 -2.65625 C 0.953125 -2.238281 1.046875 -1.863281 1.234375 -1.53125 C 1.429688 -1.195312 1.703125 -0.929688 2.046875 -0.734375 C 2.390625 -0.546875 2.769531 -0.453125 3.1875 -0.453125 Z M 3.1875 -0.453125 "/></g></g></g><g fill="#000000" fill-opacity="1"><g transform="translate(164.00974, 283.52875)"><g><path d="M 5.3125 -5.3125 L 5.3125 0 L 4.84375 0 L 1.421875 -4.3125 L 1.421875 0 L 0.859375 0 L 0.859375 -5.3125 L 1.328125 -5.3125 L 4.75 -1 L 4.75 -5.3125 Z M 5.3125 -5.3125 "/></g></g></g><g fill="#000000" fill-opacity="1"><g transform="translate(172.051537, 283.52875)"><g><path d="M 2.328125 0.046875 C 1.929688 0.046875 1.550781 -0.015625 1.1875 -0.140625 C 0.832031 -0.265625 0.554688 -0.429688 0.359375 -0.640625 L 0.578125 -1.078125 C 0.765625 -0.890625 1.019531 -0.734375 1.34375 -0.609375 C 1.664062 -0.492188 1.992188 -0.4375 2.328125 -0.4375 C 2.804688 -0.4375 3.164062 -0.519531 3.40625 -0.6875 C 3.644531 -0.863281 3.765625 -1.09375 3.765625 -1.375 C 3.765625 -1.582031 3.695312 -1.75 3.5625 -1.875 C 3.4375 -2.007812 3.28125 -2.109375 3.09375 -2.171875 C 2.90625 -2.242188 2.644531 -2.320312 2.3125 -2.40625 C 1.90625 -2.5 1.582031 -2.59375 1.34375 -2.6875 C 1.113281 -2.78125 0.910156 -2.921875 0.734375 -3.109375 C 0.566406 -3.304688 0.484375 -3.570312 0.484375 -3.90625 C 0.484375 -4.175781 0.550781 -4.421875 0.6875 -4.640625 C 0.832031 -4.859375 1.050781 -5.03125 1.34375 -5.15625 C 1.644531 -5.289062 2.007812 -5.359375 2.4375 -5.359375 C 2.75 -5.359375 3.050781 -5.316406 3.34375 -5.234375 C 3.632812 -5.148438 3.882812 -5.035156 4.09375 -4.890625 L 3.90625 -4.4375 C 3.675781 -4.582031 3.4375 -4.691406 3.1875 -4.765625 C 2.9375 -4.835938 2.6875 -4.875 2.4375 -4.875 C 1.976562 -4.875 1.628906 -4.785156 1.390625 -4.609375 C 1.160156 -4.429688 1.046875 -4.203125 1.046875 -3.921875 C 1.046875 -3.703125 1.109375 -3.53125 1.234375 -3.40625 C 1.359375 -3.28125 1.519531 -3.179688 1.71875 -3.109375 C 1.914062 -3.035156 2.175781 -2.960938 2.5 -2.890625 C 2.894531 -2.785156 3.210938 -2.6875 3.453125 -2.59375 C 3.691406 -2.5 3.894531 -2.359375 4.0625 -2.171875 C 4.226562 -1.984375 4.3125 -1.726562 4.3125 -1.40625 C 4.3125 -1.132812 4.238281 -0.890625 4.09375 -0.671875 C 3.945312 -0.453125 3.722656 -0.273438 3.421875 -0.140625 C 3.128906 -0.015625 2.765625 0.046875 2.328125 0.046875 Z M 2.328125 0.046875 "/></g></g></g><g fill="#000000" fill-opacity="1"><g transform="translate(178.591183, 283.52875)"><g><path d="M 3 0.046875 C 2.3125 0.046875 1.773438 -0.148438 1.390625 -0.546875 C 1.003906 -0.941406 0.8125 -1.515625 0.8125 -2.265625 L 0.8125 -5.3125 L 1.375 -5.3125 L 1.375 -2.296875 C 1.375 -1.671875 1.515625 -1.207031 1.796875 -0.90625 C 2.078125 -0.601562 2.476562 -0.453125 3 -0.453125 C 3.53125 -0.453125 3.9375 -0.601562 4.21875 -0.90625 C 4.5 -1.207031 4.640625 -1.671875 4.640625 -2.296875 L 4.640625 -5.3125 L 5.1875 -5.3125 L 5.1875 -2.265625 C 5.1875 -1.515625 4.992188 -0.941406 4.609375 -0.546875 C 4.234375 -0.148438 3.695312 0.046875 3 0.046875 Z M 3 0.046875 "/></g></g></g><g fill="#000000" fill-opacity="1"><g transform="translate(186.473665, 283.52875)"><g><path d="M 0.859375 -5.3125 L 1.421875 -5.3125 L 1.421875 -0.484375 L 4.40625 -0.484375 L 4.40625 0 L 0.859375 0 Z M 0.859375 -5.3125 "/></g></g></g><g fill="#000000" fill-opacity="1"><g transform="translate(192.81606, 283.52875)"><g><path d="M 1.890625 -4.828125 L 0.03125 -4.828125 L 0.03125 -5.3125 L 4.328125 -5.3125 L 4.328125 -4.828125 L 2.453125 -4.828125 L 2.453125 0 L 1.890625 0 Z M 1.890625 -4.828125 "/></g></g></g><g fill="#000000" fill-opacity="1"><g transform="translate(199.044651, 283.52875)"><g><path d="M 4.203125 -1.421875 L 1.234375 -1.421875 L 0.59375 0 L 0.015625 0 L 2.4375 -5.3125 L 3 -5.3125 L 5.421875 0 L 4.84375 0 Z M 4 -1.875 L 2.71875 -4.734375 L 1.4375 -1.875 Z M 4 -1.875 "/></g></g></g><g fill="#000000" fill-opacity="1"><g transform="translate(206.358133, 283.52875)"><g><path d="M 5.3125 -5.3125 L 5.3125 0 L 4.84375 0 L 1.421875 -4.3125 L 1.421875 0 L 0.859375 0 L 0.859375 -5.3125 L 1.328125 -5.3125 L 4.75 -1 L 4.75 -5.3125 Z M 5.3125 -5.3125 "/></g></g></g><g fill="#000000" fill-opacity="1"><g transform="translate(214.399928, 283.52875)"><g><path d="M 3.171875 0.046875 C 2.648438 0.046875 2.175781 -0.0664062 1.75 -0.296875 C 1.320312 -0.535156 0.988281 -0.859375 0.75 -1.265625 C 0.507812 -1.679688 0.390625 -2.144531 0.390625 -2.65625 C 0.390625 -3.164062 0.507812 -3.625 0.75 -4.03125 C 0.988281 -4.445312 1.320312 -4.769531 1.75 -5 C 2.175781 -5.238281 2.65625 -5.359375 3.1875 -5.359375 C 3.582031 -5.359375 3.945312 -5.289062 4.28125 -5.15625 C 4.613281 -5.03125 4.894531 -4.84375 5.125 -4.59375 L 4.765625 -4.234375 C 4.347656 -4.648438 3.828125 -4.859375 3.203125 -4.859375 C 2.773438 -4.859375 2.390625 -4.757812 2.046875 -4.5625 C 1.703125 -4.375 1.429688 -4.113281 1.234375 -3.78125 C 1.046875 -3.445312 0.953125 -3.070312 0.953125 -2.65625 C 0.953125 -2.238281 1.046875 -1.863281 1.234375 -1.53125 C 1.429688 -1.195312 1.703125 -0.929688 2.046875 -0.734375 C 2.390625 -0.546875 2.773438 -0.453125 3.203125 -0.453125 C 3.835938 -0.453125 4.359375 -0.664062 4.765625 -1.09375 L 5.125 -0.734375 C 4.894531 -0.484375 4.609375 -0.289062 4.265625 -0.15625 C 3.929688 -0.0195312 3.566406 0.046875 3.171875 0.046875 Z M 3.171875 0.046875 "/></g></g></g><g fill="#000000" fill-opacity="1"><g transform="translate(221.728584, 283.52875)"><g><path d="M 2.6875 -1.84375 L 2.6875 0 L 2.140625 0 L 2.140625 -1.84375 L 0 -5.3125 L 0.609375 -5.3125 L 2.4375 -2.328125 L 4.25 -5.3125 L 4.8125 -5.3125 Z M 2.6875 -1.84375 "/></g></g></g><g clip-path="url(#291d9b20ba)"><g clip-path="url(#ef43ffe7e7)"><path fill="#000000" d="M 195.273438 89.070312 L 221.964844 89.070312 L 221.964844 115.761719 L 195.273438 115.761719 Z M 195.273438 89.070312 " fill-opacity="1" fill-rule="nonzero"/></g></g></svg>